<svg xmlns="http://www.w3.org/2000/svg" version="1.1" width="1030px" height="483px" aria-hidden="true"><rect fill="#ffffff" width="1030px" height="483px"></rect><text x="16" y="48" fill="#000" font-size="32" font-weight="700" font-family="Adobe Clean, AdobeClean-Regular, Adobe Clean">Untitled</text><text x="16" y="119.25" fill="#000" font-size="16" font-weight="700" font-family="Adobe Clean, AdobeClean-Regular, Adobe Clean">Bluegrad</text><text x="16" y="166.25" fill="#000" font-size="11" letter-spacing="0.6" font-weight="bold" font-family="Adobe Clean, AdobeClean-Regular, Adobe Clean">Contrast with</text><text x="16" y="178.25" fill="#000" font-size="11" letter-spacing="0.6" font-weight="bold" font-family="Adobe Clean, AdobeClean-Regular, Adobe Clean">background color</text><rect x="166" y="106.25" width="80" height="80" rx="8" fill="#d2d5f1"></rect><text x="174" y="178.25" fill="#000" font-size="12" font-family="Adobe Clean, AdobeClean-Regular, Adobe Clean">1.45:1</text><text x="166" y="95.25" fill="#000" font-size="14" font-family="Adobe Clean, AdobeClean-Regular, Adobe Clean">100</text><rect x="262" y="106.25" width="80" height="80" rx="8" fill="#868fdb"></rect><text x="270" y="178.25" fill="#000" font-size="12" font-family="Adobe Clean, AdobeClean-Regular, Adobe Clean">3:1</text><text x="262" y="95.25" fill="#000" font-size="14" font-family="Adobe Clean, AdobeClean-Regular, Adobe Clean">200</text><rect x="358" y="106.25" width="80" height="80" rx="8" fill="#616dcf"></rect><text x="366" y="178.25" fill="#fff" font-size="12" font-family="Adobe Clean, AdobeClean-Regular, Adobe Clean">4.55:1</text><text x="358" y="95.25" fill="#000" font-size="14" font-family="Adobe Clean, AdobeClean-Regular, Adobe Clean">300</text><rect x="454" y="106.25" width="80" height="80" rx="8" fill="#4856c8"></rect><text x="462" y="178.25" fill="#fff" font-size="12" font-family="Adobe Clean, AdobeClean-Regular, Adobe Clean">6.1:1</text><text x="454" y="95.25" fill="#000" font-size="14" font-family="Adobe Clean, AdobeClean-Regular, Adobe Clean">400</text><rect x="550" y="106.25" width="80" height="80" rx="8" fill="#3344c2"></rect><text x="558" y="178.25" fill="#fff" font-size="12" font-family="Adobe Clean, AdobeClean-Regular, Adobe Clean">7.65:1</text><text x="550" y="95.25" fill="#000" font-size="14" font-family="Adobe Clean, AdobeClean-Regular, Adobe Clean">500</text><rect x="646" y="106.25" width="80" height="80" rx="8" fill="#2233bc"></rect><text x="654" y="178.25" fill="#fff" font-size="12" font-family="Adobe Clean, AdobeClean-Regular, Adobe Clean">9.21:1</text><text x="646" y="95.25" fill="#000" font-size="14" font-family="Adobe Clean, AdobeClean-Regular, Adobe Clean">600</text><rect x="742" y="106.25" width="80" height="80" rx="8" fill="#1123b7"></rect><text x="750" y="178.25" fill="#fff" font-size="12" font-family="Adobe Clean, AdobeClean-Regular, Adobe Clean">10.76:1</text><text x="742" y="95.25" fill="#000" font-size="14" font-family="Adobe Clean, AdobeClean-Regular, Adobe Clean">700</text><rect x="838" y="106.25" width="80" height="80" rx="8" fill="#0e1e9f"></rect><text x="846" y="178.25" fill="#fff" font-size="12" font-family="Adobe Clean, AdobeClean-Regular, Adobe Clean">12.31:1</text><text x="838" y="95.25" fill="#000" font-size="14" font-family="Adobe Clean, AdobeClean-Regular, Adobe Clean">800</text><rect x="934" y="106.25" width="80" height="80" rx="8" fill="#0c1a87"></rect><text x="942" y="178.25" fill="#fff" font-size="12" font-family="Adobe Clean, AdobeClean-Regular, Adobe Clean">13.86:1</text><text x="934" y="95.25" fill="#000" font-size="14" font-family="Adobe Clean, AdobeClean-Regular, Adobe Clean">900</text><text x="16" y="256.25" fill="#000" font-size="16" font-weight="700" font-family="Adobe Clean, AdobeClean-Regular, Adobe Clean">Redgrad</text><text x="16" y="303.25" fill="#000" font-size="11" letter-spacing="0.6" font-weight="bold" font-family="Adobe Clean, AdobeClean-Regular, Adobe Clean">Contrast with</text><text x="16" y="315.25" fill="#000" font-size="11" letter-spacing="0.6" font-weight="bold" font-family="Adobe Clean, AdobeClean-Regular, Adobe Clean">background color</text><rect x="166" y="243.25" width="80" height="80" rx="8" fill="#fbcaca"></rect><text x="174" y="315.25" fill="#000" font-size="12" font-family="Adobe Clean, AdobeClean-Regular, Adobe Clean">1.45:1</text><text x="166" y="232.25" fill="#000" font-size="14" font-family="Adobe Clean, AdobeClean-Regular, Adobe Clean">11</text><rect x="262" y="243.25" width="80" height="80" rx="8" fill="#f26969"></rect><text x="270" y="315.25" fill="#000" font-size="12" font-family="Adobe Clean, AdobeClean-Regular, Adobe Clean">3:1</text><text x="262" y="232.25" fill="#000" font-size="14" font-family="Adobe Clean, AdobeClean-Regular, Adobe Clean">22</text><rect x="358" y="243.25" width="80" height="80" rx="8" fill="#eb0f0f"></rect><text x="366" y="315.25" fill="#fff" font-size="12" font-family="Adobe Clean, AdobeClean-Regular, Adobe Clean">4.55:1</text><text x="358" y="232.25" fill="#000" font-size="14" font-family="Adobe Clean, AdobeClean-Regular, Adobe Clean">33</text><rect x="454" y="243.25" width="80" height="80" rx="8" fill="#c50d0d"></rect><text x="462" y="315.25" fill="#fff" font-size="12" font-family="Adobe Clean, AdobeClean-Regular, Adobe Clean">6.1:1</text><text x="454" y="232.25" fill="#000" font-size="14" font-family="Adobe Clean, AdobeClean-Regular, Adobe Clean">44</text><rect x="550" y="243.25" width="80" height="80" rx="8" fill="#a90b0b"></rect><text x="558" y="315.25" fill="#fff" font-size="12" font-family="Adobe Clean, AdobeClean-Regular, Adobe Clean">7.65:1</text><text x="550" y="232.25" fill="#000" font-size="14" font-family="Adobe Clean, AdobeClean-Regular, Adobe Clean">56</text><rect x="646" y="243.25" width="80" height="80" rx="8" fill="#920909"></rect><text x="654" y="315.25" fill="#fff" font-size="12" font-family="Adobe Clean, AdobeClean-Regular, Adobe Clean">9.21:1</text><text x="646" y="232.25" fill="#000" font-size="14" font-family="Adobe Clean, AdobeClean-Regular, Adobe Clean">67</text><rect x="742" y="243.25" width="80" height="80" rx="8" fill="#7f0808"></rect><text x="750" y="315.25" fill="#fff" font-size="12" font-family="Adobe Clean, AdobeClean-Regular, Adobe Clean">10.76:1</text><text x="742" y="232.25" fill="#000" font-size="14" font-family="Adobe Clean, AdobeClean-Regular, Adobe Clean">78</text><rect x="838" y="243.25" width="80" height="80" rx="8" fill="#6e0707"></rect><text x="846" y="315.25" fill="#fff" font-size="12" font-family="Adobe Clean, AdobeClean-Regular, Adobe Clean">12.31:1</text><text x="838" y="232.25" fill="#000" font-size="14" font-family="Adobe Clean, AdobeClean-Regular, Adobe Clean">89</text><rect x="934" y="243.25" width="80" height="80" rx="8" fill="#5f0606"></rect><text x="942" y="315.25" fill="#fff" font-size="12" font-family="Adobe Clean, AdobeClean-Regular, Adobe Clean">13.86:1</text><text x="934" y="232.25" fill="#000" font-size="14" font-family="Adobe Clean, AdobeClean-Regular, Adobe Clean">100</text><text x="16" y="393.25" fill="#000" font-size="16" font-weight="700" font-family="Adobe Clean, AdobeClean-Regular, Adobe Clean">Dark orange</text><text x="16" y="440.25" fill="#000" font-size="11" letter-spacing="0.6" font-weight="bold" font-family="Adobe Clean, AdobeClean-Regular, Adobe Clean">Contrast with</text><text x="16" y="452.25" fill="#000" font-size="11" letter-spacing="0.6" font-weight="bold" font-family="Adobe Clean, AdobeClean-Regular, Adobe Clean">background color</text><rect x="166" y="380.25" width="80" height="80" rx="8" fill="#f0d46f"></rect><text x="174" y="452.25" fill="#000" font-size="12" font-family="Adobe Clean, AdobeClean-Regular, Adobe Clean">1.45:1</text><text x="166" y="369.25" fill="#000" font-size="14" font-family="Adobe Clean, AdobeClean-Regular, Adobe Clean">11</text><rect x="262" y="380.25" width="80" height="80" rx="8" fill="#b6900c"></rect><text x="270" y="452.25" fill="#000" font-size="12" font-family="Adobe Clean, AdobeClean-Regular, Adobe Clean">3:1</text><text x="262" y="369.25" fill="#000" font-size="14" font-family="Adobe Clean, AdobeClean-Regular, Adobe Clean">22</text><rect x="358" y="380.25" width="80" height="80" rx="8" fill="#907209"></rect><text x="366" y="452.25" fill="#fff" font-size="12" font-family="Adobe Clean, AdobeClean-Regular, Adobe Clean">4.55:1</text><text x="358" y="369.25" fill="#000" font-size="14" font-family="Adobe Clean, AdobeClean-Regular, Adobe Clean">33</text><rect x="454" y="380.25" width="80" height="80" rx="8" fill="#785f08"></rect><text x="462" y="452.25" fill="#fff" font-size="12" font-family="Adobe Clean, AdobeClean-Regular, Adobe Clean">6.1:1</text><text x="454" y="369.25" fill="#000" font-size="14" font-family="Adobe Clean, AdobeClean-Regular, Adobe Clean">44</text><rect x="550" y="380.25" width="80" height="80" rx="8" fill="#665107"></rect><text x="558" y="452.25" fill="#fff" font-size="12" font-family="Adobe Clean, AdobeClean-Regular, Adobe Clean">7.65:1</text><text x="550" y="369.25" fill="#000" font-size="14" font-family="Adobe Clean, AdobeClean-Regular, Adobe Clean">56</text><rect x="646" y="380.25" width="80" height="80" rx="8" fill="#574506"></rect><text x="654" y="452.25" fill="#fff" font-size="12" font-family="Adobe Clean, AdobeClean-Regular, Adobe Clean">9.21:1</text><text x="646" y="369.25" fill="#000" font-size="14" font-family="Adobe Clean, AdobeClean-Regular, Adobe Clean">67</text><rect x="742" y="380.25" width="80" height="80" rx="8" fill="#4b3c05"></rect><text x="750" y="452.25" fill="#fff" font-size="12" font-family="Adobe Clean, AdobeClean-Regular, Adobe Clean">10.76:1</text><text x="742" y="369.25" fill="#000" font-size="14" font-family="Adobe Clean, AdobeClean-Regular, Adobe Clean">78</text><rect x="838" y="380.25" width="80" height="80" rx="8" fill="#413304"></rect><text x="846" y="452.25" fill="#fff" font-size="12" font-family="Adobe Clean, AdobeClean-Regular, Adobe Clean">12.31:1</text><text x="838" y="369.25" fill="#000" font-size="14" font-family="Adobe Clean, AdobeClean-Regular, Adobe Clean">89</text><rect x="934" y="380.25" width="80" height="80" rx="8" fill="#372b04"></rect><text x="942" y="452.25" fill="#fff" font-size="12" font-family="Adobe Clean, AdobeClean-Regular, Adobe Clean">13.86:1</text><text x="934" y="369.25" fill="#000" font-size="14" font-family="Adobe Clean, AdobeClean-Regular, Adobe Clean">100</text></svg>